<svg width="43" height="26" viewBox="0 0 43 26" fill="none" xmlns="http://www.w3.org/2000/svg">
<path fill-rule="evenodd" clip-rule="evenodd" d="M42.48 13.46H0.51001C0.377402 13.46 0.250262 13.4073 0.156494 13.3135C0.062726 13.2198 0.0100098 13.0926 0.0100098 12.96C0.0100098 12.8274 0.062726 12.7003 0.156494 12.6065C0.250262 12.5127 0.377402 12.46 0.51001 12.46H42.48C42.6135 12.46 42.7418 12.5123 42.8372 12.6058C42.9325 12.6993 42.9874 12.8265 42.99 12.96C42.99 13.0265 42.9768 13.0923 42.951 13.1536C42.9253 13.2149 42.8876 13.2706 42.8401 13.3172C42.7926 13.3638 42.7363 13.4003 42.6744 13.4249C42.6126 13.4494 42.5465 13.4613 42.48 13.46ZM29.8101 25.94C29.7122 25.9386 29.6168 25.9086 29.5359 25.8536C29.455 25.7985 29.392 25.7209 29.3547 25.6304C29.3175 25.5399 29.3076 25.4404 29.3263 25.3443C29.345 25.2482 29.3914 25.1598 29.46 25.0899L41.77 12.96L29.46 0.829891C29.4125 0.784774 29.3748 0.730635 29.349 0.670467C29.3232 0.6103 29.3098 0.545508 29.3098 0.480038C29.3098 0.414568 29.3232 0.349775 29.349 0.289608C29.3748 0.229441 29.4125 0.175057 29.46 0.12994C29.5064 0.0830758 29.5618 0.0459494 29.6227 0.020565C29.6836 -0.00481931 29.7489 -0.0180092 29.8149 -0.0180092C29.8809 -0.0180092 29.9464 -0.00481931 30.0073 0.020565C30.0683 0.0459494 30.1236 0.0830758 30.17 0.12994L42.84 12.6099C42.8874 12.655 42.9252 12.7094 42.951 12.7696C42.9769 12.8298 42.9901 12.8945 42.9901 12.96C42.9901 13.0255 42.9769 13.0903 42.951 13.1504C42.9252 13.2106 42.8874 13.265 42.84 13.3101L30.17 25.8001C30.0713 25.8893 29.9432 25.939 29.8101 25.94V25.94Z" fill="#187498"/>
</svg>
