<svg width="23" height="13" viewBox="0 0 23 13" fill="none" xmlns="http://www.w3.org/2000/svg">
<g clip-path="url(#clip0_2_2)">
<path fill-rule="evenodd" clip-rule="evenodd" d="M22.639 6.85901H0.358002C0.261198 6.85901 0.168365 6.82053 0.0999146 6.75208C0.0314638 6.68362 -0.00698853 6.59082 -0.00698853 6.49402C-0.00698853 6.39721 0.0314638 6.30435 0.0999146 6.2359C0.168365 6.16745 0.261198 6.12903 0.358002 6.12903H22.639C22.7358 6.12903 22.8286 6.16745 22.8971 6.2359C22.9655 6.30435 23.004 6.39721 23.004 6.49402C23.004 6.59082 22.9655 6.68362 22.8971 6.75208C22.8286 6.82053 22.7358 6.85901 22.639 6.85901V6.85901ZM16.809 13C16.7624 12.9998 16.7164 12.9902 16.6736 12.9718C16.6308 12.9534 16.5922 12.9266 16.56 12.893C16.4936 12.8237 16.4565 12.7315 16.4565 12.6355C16.4565 12.5395 16.4936 12.4473 16.56 12.378L22.141 6.48999L16.56 0.606018C16.4935 0.536586 16.4564 0.444163 16.4564 0.348022C16.4564 0.251882 16.4935 0.159459 16.56 0.0900269C16.5921 0.0560107 16.6309 0.0288952 16.6739 0.010376C16.7169 -0.00814329 16.7632 -0.0177002 16.81 -0.0177002C16.8568 -0.0177002 16.9031 -0.00814329 16.9461 0.010376C16.9891 0.0288952 17.0278 0.0560107 17.06 0.0900269L22.89 6.23199C22.9561 6.30166 22.9929 6.39399 22.9929 6.48999C22.9929 6.58599 22.9561 6.67832 22.89 6.74799L17.06 12.893C17.0276 12.927 16.9887 12.954 16.9455 12.9724C16.9024 12.9907 16.8559 13.0002 16.809 13V13Z" fill="#187498"/>
</g>
<defs>
<clipPath id="clip0_2_2">
<rect width="23" height="13" fill="white"/>
</clipPath>
</defs>
</svg>
